<?xml version="1.0" encoding="UTF-8" standalone="no"?>
<!-- Created with Inkscape (http://www.inkscape.org/) -->

<svg
   xmlns:dc="http://purl.org/dc/elements/1.1/"
   xmlns:cc="http://creativecommons.org/ns#"
   xmlns:rdf="http://www.w3.org/1999/02/22-rdf-syntax-ns#"
   xmlns:svg="http://www.w3.org/2000/svg"
   xmlns="http://www.w3.org/2000/svg"
   xmlns:sodipodi="http://sodipodi.sourceforge.net/DTD/sodipodi-0.dtd"
   xmlns:inkscape="http://www.inkscape.org/namespaces/inkscape"
   version="1.1"
   id="svg2"
   width="5669.2915"
   height="1390.8661"
   viewBox="0 0 5669.2915 1390.8676"
   sodipodi:docname="Dalibo-logo-HD.svg"
   inkscape:version="0.92.5 (2060ec1f9f, 2020-04-08)"
   inkscape:export-filename="/home/laura/Bureau/communication_web/logos_dalibo/Dalibo-logo-HD_bache.png"
   inkscape:export-xdpi="300"
   inkscape:export-ydpi="300">
  <metadata
     id="metadata8">
    <rdf:RDF>
      <cc:Work
         rdf:about="">
        <dc:format>image/svg+xml</dc:format>
        <dc:type
           rdf:resource="http://purl.org/dc/dcmitype/StillImage" />
        <dc:title></dc:title>
      </cc:Work>
    </rdf:RDF>
  </metadata>
  <defs
     id="defs6" />
  <sodipodi:namedview
     pagecolor="#ffffff"
     bordercolor="#666666"
     borderopacity="1"
     objecttolerance="10"
     gridtolerance="10"
     guidetolerance="10"
     inkscape:pageopacity="0"
     inkscape:pageshadow="2"
     inkscape:window-width="1858"
     inkscape:window-height="1043"
     id="namedview4"
     showgrid="false"
     inkscape:zoom="0.11559785"
     inkscape:cx="3280.2763"
     inkscape:cy="83.270882"
     inkscape:window-x="62"
     inkscape:window-y="0"
     inkscape:window-maximized="1"
     inkscape:current-layer="svg2"
     units="px" />
  <path
     style="fill:#000000;stroke-width:0.36641222"
     d=""
     id="path4489"
     inkscape:connector-curvature="0" />
  <path
     style="fill:#000000;stroke-width:0.36641222"
     d=""
     id="path4487"
     inkscape:connector-curvature="0" />
  <g
     id="g4868"
     transform="matrix(5.4182154,0,0,5.4182154,-6.3943624,-8.3612383)">
    <g
       id="flowRoot4834"
       style="font-style:normal;font-weight:normal;font-size:40px;line-height:1.25;font-family:sans-serif;letter-spacing:0px;word-spacing:0px;fill:#328ce6;fill-opacity:1;stroke:none"
       transform="matrix(1.9949838,0,0,1.9949838,340.19221,1502.8238)"
       aria-label="L'expertise PostgreSQL">
      <path
         id="path4790"
         style="font-style:normal;font-variant:normal;font-weight:bold;font-stretch:normal;font-size:40px;font-family:'DejaVu Sans';-inkscape-font-specification:'DejaVu Sans, Bold';font-variant-ligatures:normal;font-variant-caps:normal;font-variant-numeric:normal;font-feature-settings:normal;text-align:start;writing-mode:lr-tb;text-anchor:start;fill:#328ce6;fill-opacity:1"
         d="m -169.13281,-662.50781 h 7.51953 v 23.47656 h 13.20312 v 5.68359 h -20.72265 z"
         inkscape:connector-curvature="0" />
      <path
         id="path4792"
         style="font-style:normal;font-variant:normal;font-weight:bold;font-stretch:normal;font-size:40px;font-family:'DejaVu Sans';-inkscape-font-specification:'DejaVu Sans, Bold';font-variant-ligatures:normal;font-variant-caps:normal;font-variant-numeric:normal;font-feature-settings:normal;text-align:start;writing-mode:lr-tb;text-anchor:start;fill:#328ce6;fill-opacity:1"
         d="m -138.89844,-662.50781 v 10.83984 h -4.6289 v -10.83984 z"
         inkscape:connector-curvature="0" />
      <path
         id="path4794"
         style="font-style:normal;font-variant:normal;font-weight:bold;font-stretch:normal;font-size:40px;font-family:'DejaVu Sans';-inkscape-font-specification:'DejaVu Sans, Bold';font-variant-ligatures:normal;font-variant-caps:normal;font-variant-numeric:normal;font-feature-settings:normal;text-align:start;writing-mode:lr-tb;text-anchor:start;fill:#328ce6;fill-opacity:1"
         d="m -109.875,-644.34375 v 1.99219 h -16.34766 q 0.25391,2.46094 1.77735,3.6914 1.52343,1.23047 4.25781,1.23047 2.20703,0 4.51172,-0.64453 2.32422,-0.66406 4.76562,-1.99219 v 5.39063 q -2.48047,0.9375 -4.96093,1.40625 -2.48047,0.48828 -4.96094,0.48828 -5.9375,0 -9.23828,-3.00781 -3.28125,-3.02735 -3.28125,-8.47656 0,-5.35157 3.22265,-8.41797 3.24219,-3.06641 8.90625,-3.06641 5.15625,0 8.24219,3.10547 3.10547,3.10547 3.10547,8.30078 z m -7.1875,-2.32422 q 0,-1.99219 -1.17188,-3.20312 -1.15234,-1.23047 -3.02734,-1.23047 -2.03125,0 -3.30078,1.15234 -1.26953,1.13281 -1.58203,3.28125 z"
         inkscape:connector-curvature="0" />
      <path
         id="path4796"
         style="font-style:normal;font-variant:normal;font-weight:bold;font-stretch:normal;font-size:40px;font-family:'DejaVu Sans';-inkscape-font-specification:'DejaVu Sans, Bold';font-variant-ligatures:normal;font-variant-caps:normal;font-variant-numeric:normal;font-feature-settings:normal;text-align:start;writing-mode:lr-tb;text-anchor:start;fill:#328ce6;fill-opacity:1"
         d="m -99.074219,-644.53906 -7.890621,-10.6836 h 7.40234 l 4.472656,6.48438 4.53125,-6.48438 h 7.402344 l -7.890625,10.64454 8.28125,11.23046 h -7.402344 l -4.921875,-6.91406 -4.863281,6.91406 h -7.402345 z"
         inkscape:connector-curvature="0" />
      <path
         id="path4798"
         style="font-style:normal;font-variant:normal;font-weight:bold;font-stretch:normal;font-size:40px;font-family:'DejaVu Sans';-inkscape-font-specification:'DejaVu Sans, Bold';font-variant-ligatures:normal;font-variant-caps:normal;font-variant-numeric:normal;font-feature-settings:normal;text-align:start;writing-mode:lr-tb;text-anchor:start;fill:#328ce6;fill-opacity:1"
         d="m -71.828125,-636.51172 v 11.48438 h -6.992187 v -30.19532 h 6.992187 v 3.20313 q 1.445313,-1.91406 3.203125,-2.8125 1.757813,-0.91797 4.042969,-0.91797 4.042969,0 6.640625,3.22266 2.597656,3.20312 2.597656,8.26172 0,5.05859 -2.597656,8.28125 -2.597656,3.20312 -6.640625,3.20312 -2.285156,0 -4.042969,-0.89844 -1.757812,-0.91797 -3.203125,-2.83203 z m 4.648438,-14.16015 q -2.246094,0 -3.457032,1.66015 -1.191406,1.64063 -1.191406,4.7461 0,3.10546 1.191406,4.76562 1.210938,1.64063 3.457032,1.64063 2.246093,0 3.417968,-1.64063 1.191407,-1.64062 1.191407,-4.76562 0,-3.125 -1.191407,-4.76563 -1.171875,-1.64062 -3.417968,-1.64062 z"
         inkscape:connector-curvature="0" />
      <path
         id="path4800"
         style="font-style:normal;font-variant:normal;font-weight:bold;font-stretch:normal;font-size:40px;font-family:'DejaVu Sans';-inkscape-font-specification:'DejaVu Sans, Bold';font-variant-ligatures:normal;font-variant-caps:normal;font-variant-numeric:normal;font-feature-settings:normal;text-align:start;writing-mode:lr-tb;text-anchor:start;fill:#328ce6;fill-opacity:1"
         d="m -28.3125,-644.34375 v 1.99219 h -16.347656 q 0.253906,2.46094 1.777344,3.6914 1.523437,1.23047 4.257812,1.23047 2.207031,0 4.511719,-0.64453 2.324219,-0.66406 4.765625,-1.99219 v 5.39063 q -2.480469,0.9375 -4.960938,1.40625 -2.480468,0.48828 -4.960937,0.48828 -5.9375,0 -9.238281,-3.00781 -3.28125,-3.02735 -3.28125,-8.47656 0,-5.35157 3.222656,-8.41797 3.242187,-3.06641 8.90625,-3.06641 5.15625,0 8.242187,3.10547 3.105469,3.10547 3.105469,8.30078 z m -7.1875,-2.32422 q 0,-1.99219 -1.171875,-3.20312 -1.152344,-1.23047 -3.027344,-1.23047 -2.03125,0 -3.300781,1.15234 -1.269531,1.13281 -1.582031,3.28125 z"
         inkscape:connector-curvature="0" />
      <path
         id="path4802"
         style="font-style:normal;font-variant:normal;font-weight:bold;font-stretch:normal;font-size:40px;font-family:'DejaVu Sans';-inkscape-font-specification:'DejaVu Sans, Bold';font-variant-ligatures:normal;font-variant-caps:normal;font-variant-numeric:normal;font-feature-settings:normal;text-align:start;writing-mode:lr-tb;text-anchor:start;fill:#328ce6;fill-opacity:1"
         d="m -6.7890625,-649.26562 q -0.9179687,-0.42969 -1.8359375,-0.625 -0.8984375,-0.21485 -1.816406,-0.21485 -2.695313,0 -4.160157,1.73828 -1.445312,1.71875 -1.445312,4.94141 v 10.07812 h -6.992187 v -21.875 h 6.992187 v 3.59375 q 1.347656,-2.14843 3.085937,-3.125 1.757813,-0.99609 4.1992192,-0.99609 0.3515625,0 0.7617188,0.0391 0.4101563,0.0195 1.1914063,0.11719 z"
         inkscape:connector-curvature="0" />
      <path
         id="path4804"
         style="font-style:normal;font-variant:normal;font-weight:bold;font-stretch:normal;font-size:40px;font-family:'DejaVu Sans';-inkscape-font-specification:'DejaVu Sans, Bold';font-variant-ligatures:normal;font-variant-caps:normal;font-variant-numeric:normal;font-feature-settings:normal;text-align:start;writing-mode:lr-tb;text-anchor:start;fill:#328ce6;fill-opacity:1"
         d="m 4.3632812,-661.43359 v 6.21093 h 7.2070318 v 5 H 4.3632812 v 9.27735 q 0,1.52344 0.6054688,2.07031 0.6054687,0.52734 2.4023437,0.52734 h 3.5937503 v 5 H 4.96875 q -4.140625,0 -5.87890625,-1.71875 -1.71875005,-1.73828 -1.71875005,-5.8789 v -9.27735 h -3.4765624 v -5 h 3.4765624 v -6.21093 z"
         inkscape:connector-curvature="0" />
      <path
         id="path4806"
         style="font-style:normal;font-variant:normal;font-weight:bold;font-stretch:normal;font-size:40px;font-family:'DejaVu Sans';-inkscape-font-specification:'DejaVu Sans, Bold';font-variant-ligatures:normal;font-variant-caps:normal;font-variant-numeric:normal;font-feature-settings:normal;text-align:start;writing-mode:lr-tb;text-anchor:start;fill:#328ce6;fill-opacity:1"
         d="m 15.867188,-655.22266 h 6.992187 v 21.875 h -6.992187 z m 0,-8.51562 h 6.992187 v 5.70312 h -6.992187 z"
         inkscape:connector-curvature="0" />
      <path
         id="path4808"
         style="font-style:normal;font-variant:normal;font-weight:bold;font-stretch:normal;font-size:40px;font-family:'DejaVu Sans';-inkscape-font-specification:'DejaVu Sans, Bold';font-variant-ligatures:normal;font-variant-caps:normal;font-variant-numeric:normal;font-feature-settings:normal;text-align:start;writing-mode:lr-tb;text-anchor:start;fill:#328ce6;fill-opacity:1"
         d="m 46.707031,-654.53906 v 5.3125 q -2.246094,-0.9375 -4.335937,-1.40625 -2.089844,-0.46875 -3.945313,-0.46875 -1.992187,0 -2.96875,0.50781 -0.957031,0.48828 -0.957031,1.52344 0,0.83984 0.722656,1.28906 0.742188,0.44922 2.636719,0.66406 l 1.230469,0.17578 q 5.371093,0.6836 7.226562,2.2461 1.855469,1.5625 1.855469,4.90234 0,3.4961 -2.578125,5.25391 -2.578125,1.75781 -7.695313,1.75781 -2.167968,0 -4.492187,-0.35156 -2.304688,-0.33203 -4.746094,-1.01563 v -5.3125 q 2.089844,1.01563 4.277344,1.52344 2.207031,0.50781 4.472656,0.50781 2.050781,0 3.085938,-0.5664 1.035156,-0.56641 1.035156,-1.67969 0,-0.9375 -0.722656,-1.38672 -0.703125,-0.46875 -2.832032,-0.72266 l -1.230468,-0.15625 q -4.667969,-0.58593 -6.542969,-2.16796 -1.875,-1.58204 -1.875,-4.80469 0,-3.47656 2.382812,-5.15625 2.382813,-1.67969 7.304688,-1.67969 1.933594,0 4.0625,0.29297 2.128906,0.29297 4.628906,0.91797 z"
         inkscape:connector-curvature="0" />
      <path
         id="path4810"
         style="font-style:normal;font-variant:normal;font-weight:bold;font-stretch:normal;font-size:40px;font-family:'DejaVu Sans';-inkscape-font-specification:'DejaVu Sans, Bold';font-variant-ligatures:normal;font-variant-caps:normal;font-variant-numeric:normal;font-feature-settings:normal;text-align:start;writing-mode:lr-tb;text-anchor:start;fill:#328ce6;fill-opacity:1"
         d="m 75.28125,-644.34375 v 1.99219 H 58.933594 q 0.253906,2.46094 1.777343,3.6914 1.523438,1.23047 4.257813,1.23047 2.207031,0 4.511719,-0.64453 2.324218,-0.66406 4.765625,-1.99219 v 5.39063 q -2.480469,0.9375 -4.960938,1.40625 -2.480469,0.48828 -4.960937,0.48828 -5.9375,0 -9.238282,-3.00781 -3.28125,-3.02735 -3.28125,-8.47656 0,-5.35157 3.222657,-8.41797 3.242187,-3.06641 8.90625,-3.06641 5.15625,0 8.242187,3.10547 3.105469,3.10547 3.105469,8.30078 z m -7.1875,-2.32422 q 0,-1.99219 -1.171875,-3.20312 -1.152344,-1.23047 -3.027344,-1.23047 -2.03125,0 -3.300781,1.15234 -1.269531,1.13281 -1.582031,3.28125 z"
         inkscape:connector-curvature="0" />
      <path
         id="path4812"
         style="font-style:normal;font-variant:normal;font-weight:bold;font-stretch:normal;font-size:40px;font-family:'DejaVu Sans';-inkscape-font-specification:'DejaVu Sans, Bold';font-variant-ligatures:normal;font-variant-caps:normal;font-variant-numeric:normal;font-feature-settings:normal;text-align:start;writing-mode:lr-tb;text-anchor:start;fill:#328ce6;fill-opacity:1"
         d="m 94.773437,-662.50781 h 12.480473 q 5.5664,0 8.53515,2.48047 2.98828,2.46093 2.98828,7.03125 0,4.58984 -2.98828,7.07031 -2.96875,2.46094 -8.53515,2.46094 h -4.96094 v 10.11718 h -7.519533 z m 7.519533,5.44922 v 8.14453 h 4.16016 q 2.1875,0 3.3789,-1.05469 1.19141,-1.07422 1.19141,-3.02734 0,-1.95313 -1.19141,-3.00782 -1.1914,-1.05468 -3.3789,-1.05468 z"
         inkscape:connector-curvature="0" />
      <path
         id="path4814"
         style="font-style:normal;font-variant:normal;font-weight:bold;font-stretch:normal;font-size:40px;font-family:'DejaVu Sans';-inkscape-font-specification:'DejaVu Sans, Bold';font-variant-ligatures:normal;font-variant-caps:normal;font-variant-numeric:normal;font-feature-settings:normal;text-align:start;writing-mode:lr-tb;text-anchor:start;fill:#328ce6;fill-opacity:1"
         d="m 134.16797,-650.75 q -2.32422,0 -3.55469,1.67969 -1.21094,1.66015 -1.21094,4.80469 0,3.14453 1.21094,4.82421 1.23047,1.66016 3.55469,1.66016 2.28515,0 3.49609,-1.66016 1.21094,-1.67968 1.21094,-4.82421 0,-3.14454 -1.21094,-4.80469 -1.21094,-1.67969 -3.49609,-1.67969 z m 0,-5 q 5.64453,0 8.80859,3.04688 3.1836,3.04687 3.1836,8.4375 0,5.39062 -3.1836,8.4375 -3.16406,3.04687 -8.80859,3.04687 -5.66406,0 -8.86719,-3.04687 -3.18359,-3.04688 -3.18359,-8.4375 0,-5.39063 3.18359,-8.4375 3.20313,-3.04688 8.86719,-3.04688 z"
         inkscape:connector-curvature="0" />
      <path
         id="path4816"
         style="font-style:normal;font-variant:normal;font-weight:bold;font-stretch:normal;font-size:40px;font-family:'DejaVu Sans';-inkscape-font-specification:'DejaVu Sans, Bold';font-variant-ligatures:normal;font-variant-caps:normal;font-variant-numeric:normal;font-feature-settings:normal;text-align:start;writing-mode:lr-tb;text-anchor:start;fill:#328ce6;fill-opacity:1"
         d="m 168.34766,-654.53906 v 5.3125 q -2.2461,-0.9375 -4.33594,-1.40625 -2.08985,-0.46875 -3.94531,-0.46875 -1.99219,0 -2.96875,0.50781 -0.95704,0.48828 -0.95704,1.52344 0,0.83984 0.72266,1.28906 0.74219,0.44922 2.63672,0.66406 l 1.23047,0.17578 q 5.37109,0.6836 7.22656,2.2461 1.85547,1.5625 1.85547,4.90234 0,3.4961 -2.57813,5.25391 -2.57812,1.75781 -7.69531,1.75781 -2.16797,0 -4.49219,-0.35156 -2.30468,-0.33203 -4.74609,-1.01563 v -5.3125 q 2.08984,1.01563 4.27734,1.52344 2.20704,0.50781 4.47266,0.50781 2.05078,0 3.08594,-0.5664 1.03515,-0.56641 1.03515,-1.67969 0,-0.9375 -0.72265,-1.38672 -0.70313,-0.46875 -2.83203,-0.72266 l -1.23047,-0.15625 q -4.66797,-0.58593 -6.54297,-2.16796 -1.875,-1.58204 -1.875,-4.80469 0,-3.47656 2.38281,-5.15625 2.38281,-1.67969 7.30469,-1.67969 1.93359,0 4.0625,0.29297 2.12891,0.29297 4.62891,0.91797 z"
         inkscape:connector-curvature="0" />
      <path
         id="path4818"
         style="font-style:normal;font-variant:normal;font-weight:bold;font-stretch:normal;font-size:40px;font-family:'DejaVu Sans';-inkscape-font-specification:'DejaVu Sans, Bold';font-variant-ligatures:normal;font-variant-caps:normal;font-variant-numeric:normal;font-feature-settings:normal;text-align:start;writing-mode:lr-tb;text-anchor:start;fill:#328ce6;fill-opacity:1"
         d="m 182.72266,-661.43359 v 6.21093 h 7.20703 v 5 h -7.20703 v 9.27735 q 0,1.52344 0.60546,2.07031 0.60547,0.52734 2.40235,0.52734 h 3.59375 v 5 h -5.9961 q -4.14062,0 -5.8789,-1.71875 -1.71875,-1.73828 -1.71875,-5.8789 v -9.27735 h -3.47656 v -5 h 3.47656 v -6.21093 z"
         inkscape:connector-curvature="0" />
      <path
         id="path4820"
         style="font-style:normal;font-variant:normal;font-weight:bold;font-stretch:normal;font-size:40px;font-family:'DejaVu Sans';-inkscape-font-specification:'DejaVu Sans, Bold';font-variant-ligatures:normal;font-variant-caps:normal;font-variant-numeric:normal;font-feature-settings:normal;text-align:start;writing-mode:lr-tb;text-anchor:start;fill:#328ce6;fill-opacity:1"
         d="m 209.10937,-637.05859 q -1.44531,1.91406 -3.18359,2.8125 -1.73828,0.89843 -4.02344,0.89843 -4.0039,0 -6.62109,-3.14453 -2.61719,-3.16406 -2.61719,-8.04687 0,-4.90235 2.61719,-8.02735 2.61719,-3.14453 6.62109,-3.14453 2.28516,0 4.02344,0.89844 1.73828,0.89844 3.18359,2.83203 v -3.24219 h 7.03125 v 19.66797 q 0,5.27344 -3.33984,8.04688 -3.32031,2.79297 -9.64844,2.79297 -2.05078,0 -3.96484,-0.3125 -1.91406,-0.3125 -3.84766,-0.95703 v -5.44922 q 1.83594,1.05468 3.59375,1.5625 1.75782,0.52734 3.53516,0.52734 3.4375,0 5.03906,-1.50391 1.60156,-1.5039 1.60156,-4.70703 z M 204.5,-650.67187 q -2.16797,0 -3.37891,1.60156 -1.21093,1.60156 -1.21093,4.53125 0,3.00781 1.17187,4.57031 1.17188,1.54297 3.41797,1.54297 2.1875,0 3.39844,-1.60156 1.21093,-1.60157 1.21093,-4.51172 0,-2.92969 -1.21093,-4.53125 -1.21094,-1.60156 -3.39844,-1.60156 z"
         inkscape:connector-curvature="0" />
      <path
         id="path4822"
         style="font-style:normal;font-variant:normal;font-weight:bold;font-stretch:normal;font-size:40px;font-family:'DejaVu Sans';-inkscape-font-specification:'DejaVu Sans, Bold';font-variant-ligatures:normal;font-variant-caps:normal;font-variant-numeric:normal;font-feature-settings:normal;text-align:start;writing-mode:lr-tb;text-anchor:start;fill:#328ce6;fill-opacity:1"
         d="m 239.14844,-649.26562 q -0.91797,-0.42969 -1.83594,-0.625 -0.89844,-0.21485 -1.81641,-0.21485 -2.69531,0 -4.16015,1.73828 -1.44532,1.71875 -1.44532,4.94141 v 10.07812 h -6.99218 v -21.875 h 6.99218 v 3.59375 q 1.34766,-2.14843 3.08594,-3.125 1.75781,-0.99609 4.19922,-0.99609 0.35156,0 0.76172,0.0391 0.41016,0.0195 1.19141,0.11719 z"
         inkscape:connector-curvature="0" />
      <path
         id="path4824"
         style="font-style:normal;font-variant:normal;font-weight:bold;font-stretch:normal;font-size:40px;font-family:'DejaVu Sans';-inkscape-font-specification:'DejaVu Sans, Bold';font-variant-ligatures:normal;font-variant-caps:normal;font-variant-numeric:normal;font-feature-settings:normal;text-align:start;writing-mode:lr-tb;text-anchor:start;fill:#328ce6;fill-opacity:1"
         d="m 264.5,-644.34375 v 1.99219 h -16.34766 q 0.25391,2.46094 1.77735,3.6914 1.52343,1.23047 4.25781,1.23047 2.20703,0 4.51172,-0.64453 2.32422,-0.66406 4.76562,-1.99219 v 5.39063 q -2.48047,0.9375 -4.96093,1.40625 -2.48047,0.48828 -4.96094,0.48828 -5.9375,0 -9.23828,-3.00781 -3.28125,-3.02735 -3.28125,-8.47656 0,-5.35157 3.22265,-8.41797 3.24219,-3.06641 8.90625,-3.06641 5.15625,0 8.24219,3.10547 3.10547,3.10547 3.10547,8.30078 z m -7.1875,-2.32422 q 0,-1.99219 -1.17188,-3.20312 -1.15234,-1.23047 -3.02734,-1.23047 -2.03125,0 -3.30078,1.15234 -1.26953,1.13281 -1.58203,3.28125 z"
         inkscape:connector-curvature="0" />
      <path
         id="path4826"
         style="font-style:normal;font-variant:normal;font-weight:bold;font-stretch:normal;font-size:40px;font-family:'DejaVu Sans';-inkscape-font-specification:'DejaVu Sans, Bold';font-variant-ligatures:normal;font-variant-caps:normal;font-variant-numeric:normal;font-feature-settings:normal;text-align:start;writing-mode:lr-tb;text-anchor:start;fill:#328ce6;fill-opacity:1"
         d="m 290.37891,-661.58984 v 6.17187 q -2.40235,-1.07422 -4.6875,-1.62109 -2.28516,-0.54688 -4.31641,-0.54688 -2.69531,0 -3.98438,0.74219 -1.28906,0.74219 -1.28906,2.30469 0,1.17187 0.85938,1.83594 0.8789,0.64453 3.16406,1.11328 l 3.20312,0.64453 q 4.86329,0.97656 6.91407,2.96875 2.05078,1.99219 2.05078,5.66406 0,4.82422 -2.8711,7.1875 -2.85156,2.34375 -8.73046,2.34375 -2.77344,0 -5.56641,-0.52734 -2.79297,-0.52735 -5.58594,-1.5625 v -6.34766 q 2.79297,1.48438 5.39063,2.24609 2.61718,0.74219 5.03906,0.74219 2.46094,0 3.76953,-0.82031 1.30859,-0.82031 1.30859,-2.34375 0,-1.36719 -0.89843,-2.10938 -0.87891,-0.74218 -3.53516,-1.32812 l -2.91016,-0.64453 q -4.375,-0.9375 -6.40625,-2.98828 -2.01171,-2.05078 -2.01171,-5.52735 0,-4.35547 2.8125,-6.69922 2.8125,-2.34375 8.08593,-2.34375 2.40235,0 4.94141,0.3711 2.53906,0.35156 5.25391,1.07422 z"
         inkscape:connector-curvature="0" />
      <path
         id="path4828"
         style="font-style:normal;font-variant:normal;font-weight:bold;font-stretch:normal;font-size:40px;font-family:'DejaVu Sans';-inkscape-font-specification:'DejaVu Sans, Bold';font-variant-ligatures:normal;font-variant-caps:normal;font-variant-numeric:normal;font-feature-settings:normal;text-align:start;writing-mode:lr-tb;text-anchor:start;fill:#328ce6;fill-opacity:1"
         d="m 313.03516,-632.82031 h -0.58594 q -7.20703,0 -11.21094,-3.98438 -4.00391,-3.98437 -4.00391,-11.09375 0,-7.08984 3.98438,-11.11328 4.00391,-4.02344 11.01562,-4.02344 7.08985,0 11.03516,3.98438 3.96484,3.98437 3.96484,11.15234 0,4.92188 -2.10937,8.47657 -2.08984,3.55468 -6.03516,5.35156 l 5.87891,6.5625 h -7.16797 z m -0.80079,-24.76563 q -3.4375,0 -5.33203,2.53907 -1.89453,2.53906 -1.89453,7.14843 0,4.6875 1.85547,7.1875 1.85547,2.48047 5.37109,2.48047 3.45704,0 5.35157,-2.53906 1.89453,-2.53906 1.89453,-7.12891 0,-4.60937 -1.89453,-7.14843 -1.89453,-2.53907 -5.35157,-2.53907 z"
         inkscape:connector-curvature="0" />
      <path
         id="path4830"
         style="font-style:normal;font-variant:normal;font-weight:bold;font-stretch:normal;font-size:40px;font-family:'DejaVu Sans';-inkscape-font-specification:'DejaVu Sans, Bold';font-variant-ligatures:normal;font-variant-caps:normal;font-variant-numeric:normal;font-feature-settings:normal;text-align:start;writing-mode:lr-tb;text-anchor:start;fill:#328ce6;fill-opacity:1"
         d="m 332.89844,-662.50781 h 7.51953 v 23.47656 h 13.20312 v 5.68359 h -20.72265 z"
         inkscape:connector-curvature="0" />
    </g>
    <g
       id="flowRoot4826"
       style="font-style:normal;font-weight:normal;font-size:40px;line-height:1.25;font-family:sans-serif;letter-spacing:0px;word-spacing:0px;fill:#328ce6;fill-opacity:1;stroke:none"
       transform="matrix(5.0168142,0,0,5.0168142,-882.19071,909.64812)"
       aria-label="DALIBO">
      <path
         id="path4777"
         style="font-style:normal;font-variant:normal;font-weight:bold;font-stretch:normal;font-size:40px;font-family:'DejaVu Sans';-inkscape-font-specification:'DejaVu Sans, Bold';font-variant-ligatures:normal;font-variant-caps:normal;font-variant-numeric:normal;font-feature-settings:normal;text-align:start;writing-mode:lr-tb;text-anchor:start;fill:#328ce6;fill-opacity:1"
         d="m 228.53906,-174.45898 v 17.79296 h 2.69531 q 4.60938,0 7.03125,-2.28515 2.44141,-2.28516 2.44141,-6.64063 0,-4.33593 -2.42187,-6.60156 -2.42188,-2.26562 -7.05079,-2.26562 z m -7.51953,-5.6836 h 7.92969 q 6.64062,0 9.88281,0.95703 3.26172,0.9375 5.58594,3.20313 2.05078,1.97265 3.04687,4.55078 0.9961,2.57812 0.9961,5.83984 0,3.30078 -0.9961,5.89844 -0.99609,2.57813 -3.04687,4.55078 -2.34375,2.26563 -5.625,3.22266 -3.28125,0.9375 -9.84375,0.9375 h -7.92969 z"
         inkscape:connector-curvature="0" />
      <path
         id="path4779"
         style="font-style:normal;font-variant:normal;font-weight:bold;font-stretch:normal;font-size:40px;font-family:'DejaVu Sans';-inkscape-font-specification:'DejaVu Sans, Bold';font-variant-ligatures:normal;font-variant-caps:normal;font-variant-numeric:normal;font-feature-settings:normal;text-align:start;writing-mode:lr-tb;text-anchor:start;fill:#328ce6;fill-opacity:1"
         d="m 271.91797,-156.29492 h -11.75781 l -1.85547,5.3125 h -7.5586 l 10.80078,-29.16016 h 8.96485 l 10.80078,29.16016 h -7.55859 z m -9.88281,-5.41016 h 7.98828 l -3.98438,-11.60156 z"
         inkscape:connector-curvature="0" />
      <path
         id="path4781"
         style="font-style:normal;font-variant:normal;font-weight:bold;font-stretch:normal;font-size:40px;font-family:'DejaVu Sans';-inkscape-font-specification:'DejaVu Sans, Bold';font-variant-ligatures:normal;font-variant-caps:normal;font-variant-numeric:normal;font-feature-settings:normal;text-align:start;writing-mode:lr-tb;text-anchor:start;fill:#328ce6;fill-opacity:1"
         d="m 285.16016,-180.14258 h 7.51953 v 23.47656 h 13.20312 v 5.6836 h -20.72265 z"
         inkscape:connector-curvature="0" />
      <path
         id="path4783"
         style="font-style:normal;font-variant:normal;font-weight:bold;font-stretch:normal;font-size:40px;font-family:'DejaVu Sans';-inkscape-font-specification:'DejaVu Sans, Bold';font-variant-ligatures:normal;font-variant-caps:normal;font-variant-numeric:normal;font-feature-settings:normal;text-align:start;writing-mode:lr-tb;text-anchor:start;fill:#328ce6;fill-opacity:1"
         d="m 310.62891,-180.14258 h 7.51953 v 29.16016 h -7.51953 z"
         inkscape:connector-curvature="0" />
      <path
         id="path4785"
         style="font-style:normal;font-variant:normal;font-weight:bold;font-stretch:normal;font-size:40px;font-family:'DejaVu Sans';-inkscape-font-specification:'DejaVu Sans, Bold';font-variant-ligatures:normal;font-variant-caps:normal;font-variant-numeric:normal;font-feature-settings:normal;text-align:start;writing-mode:lr-tb;text-anchor:start;fill:#328ce6;fill-opacity:1"
         d="m 337.23047,-168.85352 q 1.77734,0 2.69531,-0.78125 0.91797,-0.78125 0.91797,-2.30468 0,-1.50391 -0.91797,-2.28516 -0.91797,-0.80078 -2.69531,-0.80078 h -4.16016 v 6.17187 z m 0.2539,12.75391 q 2.26563,0 3.39844,-0.95703 1.15235,-0.95703 1.15235,-2.89063 0,-1.89453 -1.13282,-2.83203 -1.13281,-0.95703 -3.41797,-0.95703 h -4.41406 v 7.63672 z m 6.99219,-10.48828 q 2.42188,0.70312 3.75,2.59766 1.32813,1.89453 1.32813,4.64843 0,4.21875 -2.85157,6.28907 -2.85156,2.07031 -8.67187,2.07031 h -12.48047 v -29.16016 h 11.28906 q 6.07422,0 8.78907,1.83594 2.73437,1.83594 2.73437,5.87891 0,2.1289 -0.99609,3.63281 -0.9961,1.48437 -2.89063,2.20703 z"
         inkscape:connector-curvature="0" />
      <path
         id="path4787"
         style="font-style:normal;font-variant:normal;font-weight:bold;font-stretch:normal;font-size:40px;font-family:'DejaVu Sans';-inkscape-font-specification:'DejaVu Sans, Bold';font-variant-ligatures:normal;font-variant-caps:normal;font-variant-numeric:normal;font-feature-settings:normal;text-align:start;writing-mode:lr-tb;text-anchor:start;fill:#328ce6;fill-opacity:1"
         d="m 369.33984,-175.2207 q -3.4375,0 -5.33203,2.53906 -1.89453,2.53906 -1.89453,7.14844 0,4.58984 1.89453,7.1289 1.89453,2.53907 5.33203,2.53907 3.45703,0 5.35157,-2.53907 1.89453,-2.53906 1.89453,-7.1289 0,-4.60938 -1.89453,-7.14844 -1.89454,-2.53906 -5.35157,-2.53906 z m 0,-5.44922 q 7.03125,0 11.01563,4.02344 3.98437,4.02343 3.98437,11.11328 0,7.07031 -3.98437,11.09375 -3.98438,4.02343 -11.01563,4.02343 -7.01172,0 -11.01562,-4.02343 -3.98438,-4.02344 -3.98438,-11.09375 0,-7.08985 3.98438,-11.11328 4.0039,-4.02344 11.01562,-4.02344 z"
         inkscape:connector-curvature="0" />
    </g>
    <g
       style="fill:#328ce6;fill-opacity:1"
       inkscape:label="Calque 1"
       id="layer1"
       transform="matrix(0.92058301,0,0,0.92058301,-2.0024275,-116.17755)">
      <rect
         ry="0"
         rx="0"
         y="-227.48637"
         x="-285.89886"
         height="0"
         width="0"
         id="rect3924"
         style="fill:#328ce6;fill-opacity:1;stroke:none;stroke-width:0.26458332" />
      <g
         style="fill:#328ce6;fill-opacity:1"
         id="g4495"
         transform="matrix(2.5394393,0,0,2.5394393,-78.497923,-259.62776)">
        <path
           inkscape:connector-curvature="0"
           id="rect3930-2"
           d="m 76.963618,154.06893 c -15.92982,0.009 -33.92702,0.066 -39.53041,0.0827 -4.48378,0.0135 -4.49791,5.14284 -4.49791,5.14284 l 0.0661,57.96855 h 58.67136 v -63.18583 c -4.3148,-0.0114 -9.39924,-0.0114 -14.70918,-0.008 z m -16.41244,42.87904 h 4.53926 c 0.10484,0 0.19017,0.17031 0.19017,0.38034 v 19.55435 c 0,0.21 -0.0853,0.37208 -0.19017,0.37208 h -4.53926 c -0.10483,0 -0.19017,-0.16208 -0.19017,-0.37208 v -19.55435 c 0,-0.21003 0.0853,-0.38034 0.19017,-0.38034 z"
           style="fill:#328ce6;fill-opacity:1;stroke:none;stroke-width:0.26458332" />
        <g
           style="font-style:normal;font-variant:normal;font-weight:bold;font-stretch:normal;font-size:599.57196045px;line-height:125%;font-family:Arial;-inkscape-font-specification:'Arial Bold';text-align:center;letter-spacing:0px;word-spacing:0px;text-anchor:middle;fill:#328ce6;fill-opacity:1;stroke:none"
           id="text3027-7-3-8"
           transform="matrix(0.28326591,0,0,0.29465775,171.78034,34.369899)">
          <path
             style="fill:#328ce6;fill-opacity:1"
             d="m -273.74026,407.23051 c 0,0 61.76565,-0.4323 68.6594,-0.25254 6.89375,0.17976 13.30938,6.7792 13.60609,14.89975 0.2967,8.12055 0,44.1975 0,44.1975 0.33596,33.76589 -2.04944,42.54773 -6.14795,56.20987 -4.09875,13.85725 -11.90567,26.25074 -23.42078,37.18049 -11.32013,10.92962 -25.76293,19.51723 -43.32845,25.76286 l -16.10178,-33.96013 c 16.58967,-5.46491 28.39763,-12.97907 35.42393,-22.5425 7.02615,-9.56352 10.73444,-22.64011 11.12487,-39.22981 h -39.81533 v -82.26549"
             id="path3938-7"
             inkscape:connector-curvature="0"
             sodipodi:nodetypes="czzscccccccc" />
        </g>
      </g>
    </g>
  </g>
</svg>
