<svg width="200" height="55" viewBox="0 0 200 55" fill="none" xmlns="http://www.w3.org/2000/svg">
<g clip-path="url(#clip0_223_241)">
<path d="M27.642 0C22.175 0 16.8307 1.61285 12.285 4.63459C7.73925 7.65632 4.1963 11.9512 2.10414 16.9762C0.0119768 22.0012 -0.535428 27.5305 0.531146 32.865C1.59772 38.1995 4.23037 43.0995 8.09618 46.9454C11.962 50.7914 16.8873 53.4105 22.2494 54.4716C27.6114 55.5327 33.1693 54.9881 38.2202 52.9067C43.2711 50.8253 47.5882 47.3005 50.6256 42.7782C53.6629 38.2558 55.2841 32.939 55.2841 27.5C55.2736 20.2098 52.3579 13.2211 47.1763 8.06611C41.9947 2.91113 34.9699 0.0104557 27.642 0ZM23.5399 33.6462V37.8458C21.9014 36.8637 20.5566 35.4635 19.645 33.7904C18.7333 32.1173 18.288 30.232 18.3552 28.33C18.3552 22.0652 23.1824 19.4368 26.0429 17.7075C28.1486 16.4229 29.2809 15.5632 29.2809 14.3577C29.2749 14.0653 29.1966 13.7789 29.0528 13.5238C28.909 13.2687 28.7042 13.0528 28.4565 12.8953L20.6496 17.253C20.2282 17.482 19.7335 17.5378 19.2713 17.4086C18.8091 17.2793 18.4161 16.9752 18.1764 16.5613C18.0525 16.3545 17.9722 16.1248 17.9402 15.8861C17.9081 15.6475 17.9252 15.4049 17.9902 15.173C18.0552 14.9411 18.1668 14.7248 18.3183 14.5371C18.4699 14.3494 18.6581 14.1942 18.8717 14.081C20.292 13.2609 28.3969 8.75494 28.3969 8.75494C28.3969 8.75494 32.936 9.99012 32.936 14.3577C32.936 17.6087 30.1252 19.417 27.9102 20.7609C25.3377 22.3221 22.0203 24.1107 22.0203 28.33C21.8564 30.2274 22.397 32.1187 23.5399 33.6462ZM33.2936 37.8162H33.1546C32.9231 37.8313 32.6908 37.8313 32.4593 37.8162H29.7974V34.2292H32.6778C32.9668 34.2267 33.2432 34.1113 33.4475 33.908C33.6518 33.7048 33.7678 33.4298 33.7704 33.1423C33.7697 32.9149 33.6967 32.6935 33.5618 32.5099C33.4724 32.3814 33.4029 32.2727 33.3532 32.2134C32.1812 30.4941 31.6846 29.7431 30.4927 27.9743C30.3603 27.7868 30.1717 27.6456 29.9539 27.5711C29.7361 27.4966 29.5001 27.4924 29.2798 27.5593C29.0595 27.6261 28.866 27.7606 28.7271 27.9434C28.5881 28.1261 28.5108 28.348 28.5062 28.5771V37.3814V46.6107C28.5062 46.8494 28.4589 47.0859 28.3671 47.3065C28.2752 47.5271 28.1406 47.7275 27.9709 47.8963C27.8012 48.0652 27.5997 48.1991 27.378 48.2905C27.1563 48.3818 26.9186 48.4289 26.6786 48.4289C26.4386 48.4289 26.2009 48.3818 25.9792 48.2905C25.7575 48.1991 25.556 48.0652 25.3863 47.8963C25.2166 47.7275 25.082 47.5271 24.9901 47.3065C24.8983 47.0859 24.851 46.8494 24.851 46.6107V28.5771C24.8546 27.5739 25.1784 26.5978 25.7758 25.7896C26.3732 24.9815 27.2133 24.383 28.1747 24.0807C29.1362 23.7783 30.1694 23.7877 31.1251 24.1075C32.0809 24.4272 32.9098 25.0408 33.4923 25.8597C34.6444 27.5889 35.0815 28.2806 36.5912 30.4743C37.0285 31.1434 37.2905 31.9108 37.3533 32.7064C37.4162 33.5021 37.2779 34.3007 36.9511 35.0296C36.6242 35.7584 36.1193 36.3943 35.4822 36.8793C34.8451 37.3643 34.0961 37.683 33.3035 37.8063L33.2936 37.8162Z" fill="#FAC755"/>
<path d="M101.311 29.338V19.1997H89.5709V22.1641H97.9837V25.1977H88.6174V27.6681C88.6174 34.0218 95.6893 36.0278 98.7088 32.0653C99.9404 33.9033 101.271 34.0416 103.308 34.0416V31.2254C101.977 31.2254 101.311 30.7116 101.311 29.338ZM94.8649 31.1463C94.4753 31.1535 94.0884 31.0811 93.728 30.9336C93.3676 30.7862 93.0414 30.5667 92.7696 30.2889C92.4978 30.0111 92.2861 29.6808 92.1477 29.3184C92.0092 28.956 91.9469 28.5692 91.9647 28.1819H97.9241C97.8863 28.973 97.5468 29.72 96.9747 30.2708C96.4027 30.8216 95.6411 31.1347 94.8451 31.1463H94.8649Z" fill="#2E2E2E"/>
<path d="M127.274 29.338V19.1997H115.564V22.1641H123.967V25.1977H114.601V27.6681C114.601 34.0218 121.682 36.0278 124.702 32.0653C125.924 33.9033 127.255 34.0416 129.291 34.0416V31.2254C127.97 31.2254 127.324 30.7116 127.274 29.338ZM120.838 31.1463C120.448 31.1549 120.06 31.0835 119.698 30.9366C119.337 30.7898 119.009 30.5705 118.736 30.2926C118.463 30.0146 118.251 29.6838 118.112 29.3208C117.973 28.9577 117.91 28.5701 117.928 28.1819H123.887C123.852 28.9688 123.518 29.7129 122.951 30.2634C122.385 30.8139 121.63 31.1296 120.838 31.1463Z" fill="#2E2E2E"/>
<path d="M82.6084 13.834V20.751C82.027 20.1843 81.3318 19.7461 80.5684 19.4651C79.8051 19.1841 78.9906 19.0667 78.1785 19.1205C77.1918 19.1243 76.2158 19.3235 75.3073 19.7065C74.3989 20.0896 73.5763 20.6488 72.8874 21.3516C72.1986 22.0544 71.6573 22.8866 71.2953 23.7997C70.9333 24.7129 70.7577 25.6886 70.7788 26.67C70.759 27.6505 70.9356 28.6252 71.2982 29.5371C71.6609 30.4491 72.2023 31.2802 72.891 31.9819C73.5797 32.6836 74.4019 33.242 75.3097 33.6244C76.2175 34.0069 77.1927 34.2057 78.1785 34.2095C79.0186 34.2317 79.853 34.0657 80.6198 33.7236C81.3866 33.3815 82.0663 32.8721 82.6084 32.2332V34.081H85.9457V13.834H82.6084ZM78.5261 30.9783C77.9541 31.0041 77.383 30.9102 76.8498 30.7026C76.3165 30.495 75.833 30.1785 75.4304 29.7733C75.0279 29.3682 74.7153 28.8835 74.5128 28.3507C74.3104 27.8178 74.2226 27.2486 74.2552 26.6798C74.2196 26.1029 74.3041 25.5249 74.5033 24.982C74.7026 24.4391 75.0124 23.9429 75.4133 23.5246C75.8142 23.1062 76.2976 22.7747 76.8333 22.5508C77.3689 22.3269 77.9452 22.2154 78.5261 22.2233C80.9496 22.2233 82.6183 24.081 82.6183 26.6798C82.6183 29.2786 80.9496 30.9783 78.5261 30.9783Z" fill="#2E2E2E"/>
<path d="M108.502 16.146V19.1994H112.306V22.1638H108.502V29.1598C108.462 29.4286 108.486 29.703 108.571 29.961C108.657 30.2191 108.802 30.4536 108.995 30.6457C109.188 30.8378 109.424 30.9823 109.683 31.0674C109.943 31.1526 110.218 31.1761 110.489 31.1361C111.132 31.1253 111.771 31.0424 112.396 30.8891V33.8041C111.751 34.0043 111.084 34.1238 110.409 34.1598C107.151 34.1598 105.234 32.3021 105.234 28.8831V16.146H108.502Z" fill="#2E2E2E"/>
<path d="M196.156 16.146V19.1994H199.96V22.1638H196.156V29.1598C196.118 29.4239 196.141 29.6933 196.224 29.9471C196.307 30.2008 196.447 30.4322 196.634 30.6233C196.822 30.8144 197.051 30.96 197.304 31.0489C197.556 31.1378 197.827 31.1677 198.093 31.1361C198.736 31.1253 199.376 31.0424 200 30.8891V33.8041C199.355 34.0032 198.688 34.1226 198.013 34.1598C194.756 34.1598 192.839 32.3021 192.839 28.8831V16.146H196.156Z" fill="#2E2E2E"/>
<path d="M184.873 19.1997C180.582 19.1997 177.572 22.4902 177.572 26.8183V27.6681C177.545 28.5415 177.7 29.4111 178.028 30.222C178.355 31.0328 178.848 31.7673 179.475 32.3792C180.102 32.991 180.85 33.4669 181.672 33.7769C182.493 34.0868 183.37 34.2241 184.247 34.1799C185.226 34.1492 186.188 33.9163 187.072 33.4962C187.956 33.076 188.743 32.4777 189.382 31.7392C188.061 30.6523 187.127 29.8321 187.127 29.8321C186.774 30.2469 186.336 30.5827 185.843 30.8177C185.351 31.0527 184.813 31.1815 184.267 31.1958C182.28 31.1958 180.83 30.2076 180.83 28.2313H189.978V19.1997H184.873ZM186.661 25.593H180.999C181.182 24.5857 181.733 23.6811 182.544 23.0521C183.356 22.4231 184.373 22.114 185.399 22.1839H186.661V25.593Z" fill="#2E2E2E"/>
<path d="M144.458 19.1997C140.167 19.1997 137.147 22.4902 137.147 26.8183V27.6681C137.121 28.542 137.278 29.4118 137.606 30.2227C137.935 31.0335 138.429 31.7679 139.057 32.3796C139.685 32.9913 140.433 33.4671 141.255 33.7769C142.077 34.0867 142.954 34.224 143.832 34.1799C144.818 34.1445 145.786 33.9047 146.673 33.476C147.561 33.0472 148.349 32.4388 148.987 31.6898C147.666 30.6029 146.722 29.7827 146.722 29.7827C146.37 30.1963 145.934 30.5314 145.443 30.7663C144.952 31.0013 144.416 31.1307 143.872 31.1463C141.885 31.1463 140.435 30.1582 140.435 28.1819H149.573V19.1997H144.458ZM146.216 25.593H140.554C140.737 24.5857 141.288 23.6811 142.099 23.0521C142.911 22.4231 143.928 22.114 144.954 22.1839H146.216V25.593Z" fill="#2E2E2E"/>
<path d="M177.364 19.1005C177.034 19.0616 176.703 19.0418 176.371 19.0412C175.563 19.005 174.757 19.1326 174 19.4163C173.244 19.7 172.553 20.1338 171.971 20.6914V19.2092H168.693V33.972H172V26.0669C172 23.4779 173.51 22.2131 175.616 22.2131H177.414L177.364 19.1005Z" fill="#2E2E2E"/>
<path d="M166.398 19.1996H162.028V20.6818C161.033 19.6785 159.69 19.0916 158.274 19.0415C156.806 19.0153 155.379 19.5164 154.253 20.4528C153.127 21.3892 152.378 22.6981 152.144 24.1394C151.91 25.5807 152.206 27.0577 152.978 28.2994C153.75 29.541 154.946 30.4641 156.347 30.8992L155.204 32.4704V35.4348H161.323C161.342 35.829 161.281 36.2229 161.144 36.5935C161.008 36.9641 160.799 37.3038 160.528 37.5928C160.258 37.8818 159.933 38.1143 159.571 38.2765C159.21 38.4387 158.819 38.5275 158.423 38.5376H158.105C157.704 38.5277 157.309 38.4375 156.944 38.2722C156.579 38.1069 156.251 37.8699 155.98 37.5756C155.709 37.2813 155.501 36.9356 155.368 36.5592C155.235 36.1829 155.179 35.7836 155.204 35.3854H151.897C151.933 37.0358 152.622 38.6053 153.814 39.754C155.006 40.9026 156.604 41.5377 158.264 41.5217C159.121 41.5291 159.972 41.3631 160.763 41.034C161.554 40.7048 162.27 40.2192 162.867 39.6067C163.464 38.9942 163.93 38.2674 164.237 37.4705C164.543 36.6735 164.684 35.823 164.65 34.9704V32.4012H158.522L159.664 30.9783C160.582 30.7687 161.439 30.3501 162.167 29.7553C162.895 29.1605 163.474 28.4058 163.859 27.5505C164.244 26.6952 164.425 25.7627 164.386 24.8263C164.348 23.8899 164.091 22.9752 163.637 22.1542H166.418L166.398 19.1996ZM158.274 28.251C157.874 28.2489 157.479 28.1636 157.114 28.0007C156.749 27.8378 156.422 27.6008 156.155 27.3049C155.887 27.0091 155.685 26.6609 155.561 26.2827C155.436 25.9045 155.393 25.5046 155.433 25.1087C155.396 24.7134 155.442 24.3147 155.567 23.9379C155.692 23.561 155.895 23.214 156.162 22.9188C156.429 22.6236 156.754 22.3866 157.117 22.2227C157.481 22.0588 157.875 21.9715 158.274 21.9664C159.942 21.9664 161.015 23.3202 161.015 25.1087C161.015 26.8972 159.912 28.251 158.274 28.251Z" fill="#2E2E2E"/>
</g>
<defs>
<clipPath id="clip0_223_241">
<rect width="200" height="55" fill="white"/>
</clipPath>
</defs>
</svg>
