<svg width="1692" height="545" viewBox="0 0 1692 545" fill="none" xmlns="http://www.w3.org/2000/svg">
<path d="M1524.84 545C1428.76 545 1358.4 473.888 1358.4 379.324V159.935C1358.4 129.674 1338.73 110.005 1313.01 110.005C1287.29 110.005 1267.62 129.674 1267.62 159.935V537.435H1146.58V167.5C1146.58 69.1535 1216.94 0.310791 1313.01 0.310791C1409.09 0.310791 1479.45 69.1535 1479.45 167.5V384.619C1479.45 414.88 1499.11 434.549 1524.84 434.549C1550.56 434.549 1570.23 414.88 1570.23 384.619V7.87592H1691.27V379.324C1691.27 473.888 1621.67 545 1524.84 545Z" fill="#F95B01"/>
<path d="M796.66 545C636.279 545 519.02 423.201 519.02 272.655C519.02 122.109 636.279 0.310791 796.66 0.310791C957.041 0.310791 1074.3 122.109 1074.3 272.655C1074.3 423.201 957.041 545 796.66 545ZM796.66 423.958C877.607 423.958 942.667 355.872 942.667 272.655C942.667 189.439 877.607 121.353 796.66 121.353C715.713 121.353 650.653 189.439 650.653 272.655C650.653 355.872 715.713 423.958 796.66 423.958Z" fill="#F95B01"/>
<path d="M468.193 537.435H106.104C47.6103 537.435 0.191895 490.016 0.191895 431.523V113.787C0.191895 55.294 47.6102 7.87561 106.104 7.87561H468.193C468.193 45.7013 468.193 83.5269 468.193 121.353H162.086C136.364 121.353 117.451 140.265 117.451 165.987V167.5C117.451 193.221 136.364 212.134 162.086 212.134H430.368C430.368 249.96 430.368 287.785 430.368 325.611H165.868C137.877 325.611 117.451 346.037 117.451 374.028V375.541C117.451 403.532 137.877 423.958 165.868 423.958H468.193C468.193 461.783 468.193 499.609 468.193 537.435Z" fill="#F95B01"/>
</svg>
