<?xml version="1.0" encoding="utf-8"?>
<svg version="1.0" xmlns="http://www.w3.org/2000/svg" xmlns:xlink="http://www.w3.org/1999/xlink"
	 x="0px" y="0px" viewBox="0 0 1130 235.3" style="enable-background:new 0 0 1130 235.3;" xml:space="preserve">
<style type="text/css">
	.st0{fill:#282727;}
</style>
<g>
	<path class="st0" d="M356.5,152.6h-18.8v33.6H313v-112h45.9c26.8,0,43,15.8,43,38.7v0.3C401.9,139.1,381.7,152.6,356.5,152.6
		L356.5,152.6z M376.9,113.4c0-11-7.7-17-20.1-17h-19.1v34.2h19.6c12.4,0,19.6-7.4,19.6-17V113.4L376.9,113.4z"/>
	<polygon class="st0" points="415.7,186.2 415.7,74.2 500.5,74.2 500.5,96.1 440.3,96.1 440.3,118.9 493.3,118.9 493.3,140.8
		440.3,140.8 440.3,164.3 501.3,164.3 501.3,186.3 415.7,186.3 	"/>
	<path class="st0" d="M588.9,186.2l-24.1-35.8h-19.4v35.8h-24.7v-112H572c26.5,0,42.4,13.9,42.4,37v0.3c0,18.1-9.8,29.5-24.1,34.7
		l27.5,40H588.9L588.9,186.2z M589.4,112.4c0-10.6-7.4-16-19.4-16h-24.6v32.2h25.1c12,0,18.9-6.4,18.9-15.8V112.4L589.4,112.4z"/>
	<path class="st0" d="M685.3,189.2c-33.5,0-58.4-25.8-58.4-58.4v-0.3c0-32.3,24.4-58.7,59.4-58.7c21.5,0,34.3,7.1,44.9,17.5
		l-15.9,18.3c-8.8-8-17.7-12.8-29.1-12.8c-19.2,0-33,15.9-33,35.4v0.3c0,19.5,13.5,35.7,33,35.7c13,0,21-5.2,29.9-13.3l15.9,16
		C720.3,181.4,707.3,189.2,685.3,189.2L685.3,189.2z"/>
	<path class="st0" d="M798.2,189.2c-35.2,0-60.4-26.1-60.4-58.4v-0.3c0-32.3,25.5-58.7,60.7-58.7c35.1,0,60.4,26.1,60.4,58.4v0.3
		C858.8,162.8,833.3,189.2,798.2,189.2 M832.7,130.5c0-19.5-14.3-35.7-34.5-35.7S764,110.7,764,130.2v0.3
		c0,19.5,14.3,35.7,34.5,35.7s34.2-15.9,34.2-35.4V130.5z"/>
	<polygon class="st0" points="994.9,186.3 1050.3,71.8 1105.6,186.3 1077.8,186.3 1050.3,129.3 1022.8,186.3 	"/>
	<polygon class="st0" points="984.7,74.2 984.7,189.2 900.4,121.1 900.4,186.1 874.1,186.1 874.1,71.8 958.5,139.6 958.5,74.2 	"/>
	<path class="st0" d="M96.2,107.2l63.5,110.1h-127L96.2,107.2z M166,49.9c10.3-4.9,21.8-6,33-3c12.3,3.3,22.6,11.2,29,22.3
		c12.6,21.8,6,49.4-14.4,63.3L166,49.9z M106.6,89.1l30.6-53l0,0l104.5,181.2h-61.2L106.6,89.1z M96.2,71.1L1.5,235.3H273
		l-50.3-87.2c29-18.9,38.4-57.6,20.9-88c-8.8-15.2-23-26.1-40-30.7c-15.7-4.2-32.2-2.5-46.6,4.8L137.2,0L96.2,71.1z"/>
	<g>
		<path class="st0" d="M1123,73.3c1.7,1,3.1,2.4,4.1,4.2c1,1.8,1.5,3.8,1.5,6s-0.5,4.2-1.5,6s-2.3,3.2-4.1,4.2
			c-1.7,1-3.7,1.5-5.9,1.5c-2.2,0-4.2-0.5-5.9-1.5c-1.7-1-3.1-2.4-4.1-4.2c-1-1.8-1.5-3.8-1.5-6s0.5-4.2,1.5-6s2.3-3.2,4.1-4.2
			c1.7-1,3.7-1.5,5.9-1.5S1121.2,72.3,1123,73.3z M1122.2,92.4c1.5-0.9,2.7-2.1,3.5-3.7s1.2-3.3,1.2-5.2s-0.4-3.7-1.2-5.2
			c-0.8-1.5-2-2.8-3.5-3.6c-1.5-0.9-3.2-1.3-5.1-1.3c-2.9,0-5.3,1-7.1,2.9c-1.8,1.9-2.7,4.3-2.7,7.3c0,1.9,0.4,3.7,1.2,5.2
			c0.8,1.6,2,2.8,3.5,3.7c1.5,0.9,3.2,1.3,5.1,1.3C1119,93.7,1120.7,93.3,1122.2,92.4z M1121.2,83.3c-0.6,0.7-1.5,1.1-2.6,1.2
			l3.8,5.3l-2.2,0.1l-3.7-5.4h-1.9v5.4h-1.9V77.1h5.3c1.3,0,2.3,0.3,3,1c0.7,0.6,1.1,1.6,1.1,2.8
			C1122.2,81.8,1121.8,82.7,1121.2,83.3z M1114.7,82.9h3.2c1.6,0,2.5-0.7,2.5-2.1c0-0.7-0.2-1.2-0.7-1.5c-0.4-0.3-1-0.5-1.8-0.5
			h-3.2V82.9z"/>
	</g>
</g>
</svg>
