<svg width="1314" height="290" viewBox="0 0 1314 290" fill="none" xmlns="http://www.w3.org/2000/svg">
<mask id="mask0_10251_334" style="mask-type:luminance" maskUnits="userSpaceOnUse" x="0" y="0" width="290" height="290">
<path d="M289.56 144.779C289.56 64.8201 224.74 0 144.779 0C64.82 0 0 64.8201 0 144.779V145.142C0 225.101 64.82 289.922 144.779 289.922C224.74 289.922 289.56 225.101 289.56 145.142V144.779Z" fill="white"/>
</mask>
<g mask="url(#mask0_10251_334)">
<path d="M126.099 130.478L126.085 106.588C126.085 105.167 125.522 103.802 124.516 102.796L103.861 82.0754L89.4512 97.9938L123.127 131.71C124.225 132.809 126.101 132.029 126.101 130.476L126.099 130.478Z" fill="black"/>
<path d="M80.4705 188.078L39.8788 147.524L25.3721 163.301L79.069 217.014C80.1664 218.111 82.0406 217.334 82.0406 215.78V191.873C82.0406 190.449 81.4755 189.085 80.4705 188.078Z" fill="black"/>
<path d="M134.544 0.880909C61.6887 5.92006 3.46441 66.2995 0.72089 139.365C-1.95687 210.707 47.0402 271.067 113.193 285.875L24.9994 197.559C23.7356 196.293 23.0266 194.575 23.0307 192.785L23.0965 164.254C23.0986 163.061 24.5392 162.465 25.3797 163.309L39.8864 147.531C38.9761 146.62 38.9761 145.14 39.8864 144.23L53.8403 130.292C54.7508 129.382 56.2242 129.384 57.1326 130.292L104.276 177.494C106.28 179.5 107.404 182.22 107.404 185.056V234.306C107.404 241.401 110.22 248.205 115.229 253.222L151.174 289.212C160.305 288.821 169.206 287.57 177.813 285.549L132.276 239.942C130.023 237.686 128.758 234.627 128.758 231.437V183.844C128.758 176.042 125.663 168.558 120.152 163.041L72.3031 115.133C71.3927 114.222 71.3926 112.742 72.3051 111.831L86.1625 97.9995C87.0729 97.09 88.5464 97.092 89.4548 98.0016L103.865 82.0835C103.596 81.7749 103.34 81.4375 103.086 81.0876C98.9714 75.5279 96.4707 66.3591 99.387 56.0196C101.134 49.4001 104.761 44.4082 111.448 38.3423C112.036 37.8094 112.962 37.7826 113.561 38.3012L130.881 53.3261L134.293 56.2911C135.603 57.429 137.169 58.2356 138.856 58.6368L192.858 71.4888C193.488 71.6369 194.068 71.9599 194.524 72.4044L249.993 127.808C250.961 128.737 251.511 130.031 251.511 131.377V143.156C251.511 144.967 251.056 146.751 250.185 148.337L222.734 198.413C221.538 200.605 218.86 201.523 216.575 200.526L203.922 195.004H157.679C154.707 195.004 152.302 197.416 152.302 200.39V221.033C152.302 223.875 153.423 226.605 155.422 228.62L203.318 276.942C253.758 254.459 288.935 203.807 288.935 144.931C288.935 61.7788 218.782 -4.9525 134.534 0.874734L134.544 0.880909Z" fill="black"/>
</g>
<path d="M423.966 210.879H397.509V91.4396H353.604V67.8865H467.871V91.4396H423.966V210.879ZM509.751 210.879H483.484V109.391H509.751V210.879ZM578.592 252.433C549.451 252.433 529.512 238.646 529.512 216.433H555.395C555.586 224.858 564.597 231.561 578.4 231.561C594.889 231.561 603.516 221.986 603.516 207.816V194.411C597.382 203.794 586.646 209.348 572.649 209.348C545.041 209.348 525.677 188.283 525.677 157.837C525.677 127.198 545.233 106.134 572.265 106.134C587.987 106.134 600.641 113.22 606.585 124.326L608.693 109.391H629.399V207.625C629.399 234.816 609.46 252.433 578.592 252.433ZM577.825 187.901C592.972 187.901 603.516 175.646 603.516 157.645C603.516 140.028 592.972 127.773 577.825 127.773C562.871 127.773 552.326 140.028 552.326 157.837C552.326 175.646 562.871 187.901 577.825 187.901ZM698.616 213.943C666.982 213.943 645.317 191.923 645.317 160.518C645.317 127.581 667.174 106.134 696.699 106.134C725.841 106.134 745.78 126.623 746.354 159.752V165.879H671.008C672.925 181.582 683.47 192.306 698.808 192.306C709.545 192.306 717.405 187.327 720.664 178.517H745.972C740.412 200.922 722.965 213.943 698.616 213.943ZM672.158 148.454H719.515C716.638 135.433 708.586 127.964 696.699 127.964C684.812 127.964 675.61 135.624 672.158 148.454ZM788.349 210.879H762.082V109.391H783.172L786.432 129.688C792.951 115.517 804.837 108.05 821.517 108.05H825.735V133.326H821.517C800.619 133.326 788.349 144.049 788.349 162.432V210.879Z" fill="black"/>
<path d="M939.081 211.149H890V77.1064H939.081C979.536 77.1064 1007.91 104.299 1007.91 143.362C1007.91 183.383 979.536 211.149 939.081 211.149ZM916.459 100.659V187.406H940.807C964.198 187.406 980.493 169.405 980.493 143.362C980.493 118.66 964.198 100.659 940.807 100.659H916.459ZM1059.08 213.64C1035.49 213.64 1019.77 202.724 1019.96 183.383C1020.34 159.448 1044.31 154.086 1064.06 151.787C1079.01 149.873 1089.56 148.916 1089.56 141.064C1089.56 132.638 1083.22 127.276 1071.15 127.276C1058.5 127.276 1050.06 133.979 1048.72 143.936H1022.26C1024.56 121.723 1044.5 106.404 1071.53 106.404C1100.1 106.404 1115.06 121.341 1115.06 142.788V187.022C1115.06 189.894 1116.4 191.426 1119.85 191.426H1125.21V211.149H1113.51C1103.74 211.149 1096.83 207.512 1094.36 200.617C1093.77 199.469 1093.39 198.32 1093 196.98C1087.06 207.32 1076.13 213.64 1059.08 213.64ZM1064.83 193.724C1078.43 193.724 1089.56 186.639 1089.56 174.575V159.831C1086.1 165.767 1077.09 167.106 1067.12 168.447C1055.05 170.171 1046.22 171.894 1046.22 181.469C1046.22 189.319 1052.36 193.724 1064.83 193.724ZM1196.38 211.149H1182.57C1159.38 211.149 1146.73 200.043 1146.73 179.17V131.681H1129.65V109.661H1146.73V75H1172.99V109.661H1198.49V131.681H1172.99V176.682C1172.99 184.724 1177.02 189.128 1184.88 189.128H1196.38V211.149ZM1247.8 213.64C1224.22 213.64 1208.49 202.724 1208.69 183.383C1209.07 159.448 1233.03 154.086 1252.78 151.787C1267.73 149.873 1278.28 148.916 1278.28 141.064C1278.28 132.638 1271.96 127.276 1259.87 127.276C1247.22 127.276 1238.79 133.979 1237.44 143.936H1210.98C1213.29 121.723 1233.23 106.404 1260.26 106.404C1288.83 106.404 1303.78 121.341 1303.78 142.788V187.022C1303.78 189.894 1305.13 191.426 1308.57 191.426H1313.95V211.149H1302.25C1292.47 211.149 1285.57 207.512 1283.08 200.617C1282.51 199.469 1282.11 198.32 1281.74 196.98C1275.8 207.32 1264.86 213.64 1247.8 213.64ZM1253.55 193.724C1267.16 193.724 1278.28 186.639 1278.28 174.575V159.831C1274.83 165.767 1265.82 167.106 1255.85 168.447C1243.77 170.171 1234.95 171.894 1234.95 181.469C1234.95 189.319 1241.09 193.724 1253.55 193.724Z" fill="black"/>
<path d="M495.805 97.0261C504.22 97.0261 511.041 90.2048 511.041 81.7902C511.041 73.3756 504.22 66.5542 495.805 66.5542C487.391 66.5542 480.569 73.3756 480.569 81.7902C480.569 90.2048 487.391 97.0261 495.805 97.0261Z" fill="black"/>
</svg>
