<svg width="412" height="99" viewBox="0 0 412 99" fill="none" xmlns="http://www.w3.org/2000/svg">
<path fill-rule="evenodd" clip-rule="evenodd" d="M328.162 33.9646V19.2156H311.394V1.55635e-05H296.183C296.176 31.8085 296.092 26.0555 296.183 60.2009C296.244 84.2664 308.755 96.5307 328.162 97.3071V82.5594C316.982 81.4693 311.394 74.4846 311.394 60.0454V33.9646H328.162ZM169.105 44.0566L187.268 19.2156H204.501L178.04 56.6328C187.594 70.0273 197.134 83.4319 206.673 96.8398H189.283L169.258 69.0514L149.233 96.8398H131.691L160.564 56.4773L134.019 19.2156H151.25C157.213 27.5113 163.163 35.8171 169.105 44.1262V44.0566ZM269.55 55.1108V60.9286C268.193 73.6535 258.018 83.3351 245.018 83.3351C231.044 83.3351 220.025 72.1569 220.025 58.028C220.025 43.9025 230.89 32.7236 245.018 32.7236C258.157 32.7236 268.207 42.3938 269.55 55.1108ZM396.78 55.1108V60.9286C395.428 73.6535 385.253 83.3351 372.251 83.3351C358.281 83.3351 347.254 72.1569 347.254 58.028C347.254 43.9025 358.123 32.7236 372.251 32.7236C385.391 32.7236 395.442 42.3938 396.78 55.1108ZM411.994 56.5995V17.9733H396.78V26.5721C389.889 21.0694 381.242 17.777 372.097 17.9733C350.517 17.51 331.578 36.4518 332.04 58.028C331.578 79.6089 350.517 98.5468 372.097 98.0828C382.809 98.0828 393.056 92.1836 396.78 84.5768V96.8398H411.994V58.028C412.003 57.5507 412.001 57.0734 411.994 56.5995ZM204.81 58.028C204.345 79.6089 223.282 98.5468 244.866 98.0828C255.578 98.0828 265.821 92.1836 269.55 84.5768V96.8398H284.76V58.028C284.768 57.5507 284.768 57.0734 284.76 56.5995V17.9733H269.55V26.5734C262.658 21.0713 254.013 17.777 244.866 17.9733C223.282 17.51 204.345 36.4518 204.81 58.028Z" fill="#18181B"/>
<path fill-rule="evenodd" clip-rule="evenodd" d="M89.6583 55.193C97.4065 68.7403 95.5514 86.2877 84.0847 97.9166L83.912 98.0915L65.3364 79.5134L89.6583 55.193ZM44.5741 59.7424C43.0507 65.2356 40.1928 70.4346 35.994 74.8257L35.4139 75.4045L10.4446 50.4245C-3.41994 36.5586 -3.48203 14.1128 10.263 0.172783L10.4372 7.62939e-06L36.0955 25.6581C44.9859 35.0314 47.8117 48.0508 44.5741 59.7424ZM7.44721 55.193C-0.302454 68.7403 1.55803 86.2877 13.0227 97.9166L13.1976 98.0915L31.7723 79.5134L7.44721 55.193ZM52.534 59.7424C54.0527 65.2356 56.9166 70.4346 61.1148 74.8257L61.695 75.4045L86.661 50.4245C100.528 36.5586 100.587 14.1128 86.8425 0.172783L86.6695 7.62939e-06L61.01 25.6581C52.1228 35.0314 49.293 48.0508 52.534 59.7424Z" fill="#8468F6"/>
</svg>
