<?xml version="1.0" encoding="UTF-8"?>
<svg version="1.1" viewBox="52.8 94.0 1073.8 1012.6" xmlns="http://www.w3.org/2000/svg">
 <style>
  path { fill: #000000; }
  @media (prefers-color-scheme: dark) { path { fill: #e2e2e2; stroke: #e2e2e2; } }
 </style>
 <g stroke="#000" stroke-width="40" stroke-linejoin="round" stroke-linecap="round" paint-order="stroke fill">
 <path d="m443.36 556.09v92.461l292.63 0.003906v-92.461c0-115.58 89.012-209.65 201.95-220.16-61.891-130.83-194-221.93-348.27-221.93-154.26 0-286.37 91.098-348.18 221.93 112.85 10.512 201.86 104.58 201.86 220.16z"/>
 <path d="m963.7 408.48c-1.7656-0.082031-3.5273-0.55859-5.375-0.55859-81.785 0-148.25 66.293-148.25 148.16v126.46q0,40 -40,40l-360.8,-0.003907q-40,0 -40,-40v-126.46c0-81.867-66.457-148.16-148.25-148.16-1.8477 0-3.5352 0.47656-5.375 0.55859-79.301 2.8125-142.87 67.66-142.87 147.61 0 58.43 34.191 108.52 83.316 132.59v397.94h867.16l-0.003906-397.94c49.125-24.082 83.316-74.168 83.316-132.59-0.003906-79.949-63.566-144.8-142.87-147.61z"/>
 </g>
</svg>
